<svg xmlns="http://www.w3.org/2000/svg" xmlns:xlink="http://www.w3.org/1999/xlink" width="48" height="48"><defs><linearGradient id="a"><stop offset="0" style="stop-color:#fff;stop-opacity:1"/><stop offset=".508" style="stop-color:#fff;stop-opacity:.23529412"/><stop offset=".835" style="stop-color:#fff;stop-opacity:.15686275"/><stop offset="1" style="stop-color:#fff;stop-opacity:.39215687"/></linearGradient><linearGradient xlink:href="#a" id="i" x1="71.204" x2="71.204" y1="6.238" y2="44.341" gradientTransform="matrix(1.05405 0 0 1.05405 -51.611 -2.728)" gradientUnits="userSpaceOnUse"/><linearGradient id="b"><stop offset="0" style="stop-color:#43d6b5;stop-opacity:1"/><stop offset="1" style="stop-color:#28bca3;stop-opacity:1"/></linearGradient><linearGradient xlink:href="#b" id="h" x1="-53.442" x2="-53.442" y1="41.401" y2="74.402" gradientTransform="matrix(.67765 0 0 1.23352 60.215 -47.57)" gradientUnits="userSpaceOnUse"/><linearGradient id="c"><stop offset="0" style="stop-color:#000;stop-opacity:1"/><stop offset="1" style="stop-color:#000;stop-opacity:0"/></linearGradient><linearGradient id="d"><stop offset="0" style="stop-color:#cdf87e;stop-opacity:1"/><stop offset=".262" style="stop-color:#a2e34f;stop-opacity:1"/><stop offset=".661" style="stop-color:#68b723;stop-opacity:1"/><stop offset="1" style="stop-color:#1d7e0d;stop-opacity:1"/></linearGradient><linearGradient xlink:href="#e" id="k" x1="24.139" x2="24.139" y1="9.712" y2="36.594" gradientTransform="matrix(.70449 0 0 .5952 21.241 23.22)" gradientUnits="userSpaceOnUse"/><linearGradient id="e"><stop offset="0" style="stop-color:#fff;stop-opacity:1"/><stop offset="0" style="stop-color:#fff;stop-opacity:.23529412"/><stop offset="1" style="stop-color:#fff;stop-opacity:.15686275"/><stop offset="1" style="stop-color:#fff;stop-opacity:.39215687"/></linearGradient><linearGradient xlink:href="#e" id="l" x1="24.139" x2="24.139" y1="20.271" y2="26.006" gradientTransform="matrix(.60015 0 0 .69748 23.556 20.861)" gradientUnits="userSpaceOnUse"/><radialGradient xlink:href="#c" id="f" cx="99.189" cy="185.297" r="62.769" fx="99.189" fy="185.297" gradientTransform="matrix(.38235 0 0 .11152 -5.925 36.336)" gradientUnits="userSpaceOnUse"/><radialGradient xlink:href="#c" id="g" cx="99.189" cy="185.297" r="62.769" fx="99.189" fy="185.297" gradientTransform="matrix(.2549 0 0 .07966 6.716 44.24)" gradientUnits="userSpaceOnUse"/><radialGradient xlink:href="#d" id="j" cx="65.598" cy="48.745" r="31" fx="65.598" fy="48.745" gradientTransform="matrix(0 .95936 -1.04367 0 87.758 -35.866)" gradientUnits="userSpaceOnUse"/></defs><g style="stroke-width:1.40587306"><path d="M56 57.002a24 6.999 0 1 1-48 0 24 6.999 0 1 1 48 0z" style="opacity:.2;fill:url(#f);fill-opacity:1;stroke:none;stroke-width:1.40587306" transform="matrix(.70833 0 0 .71428 1.333 .785)"/><path d="M48 59.002a16 4.999 0 1 1-32 0 16 4.999 0 1 1 32 0z" style="opacity:.4;fill:url(#g);fill-opacity:1;stroke:none;stroke-width:1.40587306" transform="matrix(.70833 0 0 .71428 1.333 .785)"/></g><path d="M44.5 24.003a20.5 20.5 0 0 1-41 0 20.5 20.5 0 1 1 41 0z" style="color:#000;fill:url(#h);fill-opacity:1;fill-rule:nonzero;stroke:none;stroke-width:1.54645538;marker:none;visibility:visible;display:inline;overflow:visible;enable-background:accumulate"/><path d="M24 12.865c-4.712 0-8.531 3.672-8.531 8.203 0 4.53 3.82 8.203 8.531 8.203 4.712 0 8.531-3.673 8.531-8.203 0-4.53-3.82-8.203-8.531-8.203zm-3.127 17.78c-3.84 0-7.163 2.26-8.84 5.578A16.351 16.351 0 0 0 24 41.412c4.722 0 8.973-1.996 11.966-5.189-1.676-3.319-4.998-5.578-8.839-5.578h-6.254z" style="opacity:.05;color:#000;fill:#007367;fill-opacity:1;fill-rule:nonzero;stroke:#007367;stroke-width:2;marker:none;visibility:visible;display:inline;overflow:visible;enable-background:accumulate;stroke-opacity:1;stroke-miterlimit:4;stroke-dasharray:none"/><path d="M24 12.865c-4.712 0-8.531 3.672-8.531 8.203 0 4.53 3.82 8.203 8.531 8.203 4.712 0 8.531-3.673 8.531-8.203 0-4.53-3.82-8.203-8.531-8.203zm-3.127 17.78c-3.84 0-7.163 2.26-8.84 5.578A16.351 16.351 0 0 0 24 41.412c4.722 0 8.973-1.996 11.966-5.189-1.676-3.319-4.998-5.578-8.839-5.578h-6.254z" style="opacity:.15;color:#000;fill:#007367;fill-opacity:1;fill-rule:nonzero;stroke:none;stroke-width:2;marker:none;visibility:visible;display:inline;overflow:visible;enable-background:accumulate"/><path d="M24 11.865c-4.712 0-8.531 3.672-8.531 8.203 0 4.53 3.82 8.203 8.531 8.203 4.712 0 8.531-3.673 8.531-8.203 0-4.53-3.82-8.203-8.531-8.203zm-3.127 17.78c-3.84 0-7.163 2.26-8.84 5.578A16.351 16.351 0 0 0 24 40.412c4.722 0 8.973-1.996 11.966-5.189-1.676-3.319-4.998-5.578-8.839-5.578h-6.254z" style="color:#000;fill:#fff;fill-opacity:1;fill-rule:nonzero;stroke:none;stroke-width:2;marker:none;visibility:visible;display:inline;overflow:visible;enable-background:accumulate"/><path d="M43.5 24c0 10.77-8.731 19.5-19.5 19.5-10.77 0-19.5-8.73-19.5-19.5S13.23 4.5 24 4.5c10.769 0 19.5 8.73 19.5 19.5h0z" style="opacity:.5;color:#000;fill:none;stroke:url(#i);stroke-width:1;stroke-linecap:round;stroke-linejoin:round;stroke-miterlimit:4;stroke-opacity:1;stroke-dasharray:none;stroke-dashoffset:0;marker:none;visibility:visible;display:inline;overflow:visible;enable-background:accumulate"/><path fill="none" d="M24 3.5C12.689 3.5 3.5 12.689 3.5 24S12.689 44.5 24 44.5 44.5 35.311 44.5 24 35.311 3.5 24 3.5z" style="opacity:.5;color:#000;fill:#000;fill-opacity:0;fill-rule:nonzero;stroke:#007367;stroke-width:1;stroke-linecap:round;stroke-linejoin:round;stroke-miterlimit:4;stroke-opacity:1;stroke-dasharray:none;stroke-dashoffset:0;marker:none;visibility:visible;display:inline;overflow:visible;enable-background:accumulate"/><path d="M33.5 33.5v-6.027h7V33.5h6.007v7H40.5v6.007h-7V40.5h-6.007v-7z" style="color:#000;display:inline;overflow:visible;visibility:visible;fill:url(#j);fill-opacity:1;fill-rule:nonzero;stroke:none;stroke-width:.985427;stroke-linecap:round;stroke-linejoin:round;stroke-miterlimit:4;stroke-dasharray:none;stroke-dashoffset:0;stroke-opacity:1;marker:none;enable-background:accumulate" transform="translate(.007 .027)"/><path d="M34.5 35.46V28.5h5v6.95m0 3.095V45.5h-5v-6.955" style="display:inline;opacity:.5;fill:none;stroke:url(#k);stroke-width:1;stroke-linecap:butt;stroke-linejoin:miter;stroke-miterlimit:4;stroke-dasharray:none;stroke-opacity:1" transform="translate(.007 .027)"/><path d="m40 34.52 5.5-.018v4.98L40 39.5m-6 0-5.5-.018v-4.98l5.5.018" style="display:inline;opacity:.5;fill:none;stroke:url(#l);stroke-width:1;stroke-linecap:butt;stroke-linejoin:miter;stroke-miterlimit:4;stroke-dasharray:none;stroke-opacity:1" transform="translate(.007 .027)"/><path d="M33.5 33.5v-6.027h7V33.5h6.007v7H40.5v6.007h-7V40.5h-6.007v-7z" style="color:#000;clip-rule:nonzero;display:inline;overflow:visible;visibility:visible;opacity:.5;isolation:auto;mix-blend-mode:normal;color-interpolation:sRGB;color-interpolation-filters:linearRGB;solid-color:#000;solid-opacity:1;fill:none;fill-opacity:1;fill-rule:nonzero;stroke:#0f5a00;stroke-width:1;stroke-linecap:round;stroke-linejoin:round;stroke-miterlimit:4;stroke-dasharray:none;stroke-dashoffset:0;stroke-opacity:1;marker:none;color-rendering:auto;image-rendering:auto;shape-rendering:auto;text-rendering:auto;enable-background:accumulate" transform="translate(.007 .027)"/></svg>