<svg xmlns="http://www.w3.org/2000/svg" xmlns:xlink="http://www.w3.org/1999/xlink" width="596.454" height="539.637"><defs><linearGradient id="a"><stop offset="0" style="stop-color:#000;stop-opacity:1"/><stop offset="1" style="stop-color:#000;stop-opacity:0"/></linearGradient><linearGradient id="c"><stop offset="0" style="stop-color:#fff;stop-opacity:1"/><stop offset="1" style="stop-color:#fff;stop-opacity:0"/></linearGradient><linearGradient id="d"><stop offset="0" style="stop-color:#fff;stop-opacity:1"/><stop offset="1" style="stop-color:#fff;stop-opacity:0"/></linearGradient><linearGradient id="b"><stop offset="0" style="stop-color:#babdb6;stop-opacity:.16384181"/><stop offset=".5" style="stop-color:#babdb6;stop-opacity:1"/><stop offset="1" style="stop-color:#babdb6;stop-opacity:.33898309"/></linearGradient><linearGradient xlink:href="#d" id="j" x1="73.201" x2="669.656" y1="286.648" y2="286.648" gradientTransform="translate(0 -48)" gradientUnits="userSpaceOnUse"/><linearGradient xlink:href="#c" id="i" x1="252.446" x2="637.089" y1="377.289" y2="732.862" gradientTransform="translate(0 -48)" gradientUnits="userSpaceOnUse"/><linearGradient xlink:href="#b" id="h" x1="360.5" x2="383.5" y1="718.791" y2="718.791" gradientTransform="matrix(1 0 0 .84208 0 45.312)" gradientUnits="userSpaceOnUse"/><linearGradient xlink:href="#b" id="g" x1="427.576" x2="465.042" y1="716.204" y2="691.961" gradientTransform="matrix(-1 0 0 1 743.62 -48)" gradientUnits="userSpaceOnUse"/><linearGradient xlink:href="#b" id="f" x1="427.576" x2="465.042" y1="716.204" y2="691.961" gradientTransform="translate(0 -48)" gradientUnits="userSpaceOnUse"/><radialGradient xlink:href="#a" id="e" cx="-91.429" cy="-37.638" r="468.571" fx="-91.429" fy="-37.638" gradientTransform="matrix(1 0 0 .1189 457.143 801.123)" gradientUnits="userSpaceOnUse"/></defs><path d="M834.286 796.648c0 30.77-209.787 55.714-468.572 55.714-258.785 0-468.571-24.944-468.571-55.714s209.786-55.714 468.571-55.714 468.572 24.944 468.572 55.714z" style="opacity:.673835;fill:url(#e);fill-opacity:1;fill-rule:evenodd;stroke:none;filter:url(#filter3897)" transform="matrix(.69357 0 0 .83615 51.722 -141.316)"/><path d="M11.429 140.934h722.857V863.79H11.429Z" style="color:#000;display:inline;overflow:visible;visibility:visible;fill:none;fill-opacity:1;fill-rule:evenodd;stroke:none;stroke-width:1px;stroke-linecap:butt;stroke-linejoin:miter;stroke-miterlimit:4;stroke-dashoffset:0;stroke-opacity:1;marker:none;enable-background:accumulate" transform="translate(-73.201 -208.992)"/><path d="M360.571 556.648 258.726 717.13M383.012 556.648 484.857 717.13" style="fill:none;stroke:#000;stroke-width:23;stroke-linecap:butt;stroke-linejoin:miter;stroke-miterlimit:4;stroke-dasharray:none;stroke-opacity:1" transform="translate(-73.201 -208.992)"/><path d="M383.012 556.648 484.857 717.13" style="fill:none;stroke:url(#f);stroke-width:23;stroke-linecap:butt;stroke-linejoin:miter;stroke-miterlimit:4;stroke-dasharray:none;stroke-opacity:1" transform="translate(-73.201 -208.992)"/><path d="M360.608 556.648 258.763 717.13" style="fill:none;stroke:url(#g);stroke-width:23;stroke-linecap:butt;stroke-linejoin:miter;stroke-miterlimit:4;stroke-dasharray:none;stroke-opacity:1" transform="translate(-73.201 -208.992)"/><path d="M372 552.546V748.63" style="fill:none;stroke:#000;stroke-width:21.1059;stroke-linecap:butt;stroke-linejoin:miter;stroke-miterlimit:4;stroke-dasharray:none;stroke-opacity:1" transform="translate(-73.201 -208.992)"/><path d="M372 552.546V748.63" style="fill:none;stroke:url(#h);stroke-width:21.1059;stroke-linecap:butt;stroke-linejoin:miter;stroke-miterlimit:4;stroke-dasharray:none;stroke-opacity:1" transform="translate(-73.201 -208.992)"/><path d="M621.594 233.781c-167.856.947-335.778-.606-503.594.875-4.444 2.988-1.844 9.828-2.837 14.406.492 103.818-.845 207.762.587 311.5 5.492 6.438 15.135 2.182 22.375 3.126 162.99-.058 326.064.642 489-.407 6.988-5.665 2.262-15.833 3.222-23.406-.001-101.123 1.055-202.429-.597-303.438-1.901-2.318-5.326-2.731-8.156-2.656z" style="color:#000;display:inline;overflow:visible;visibility:visible;fill:#babdb6;fill-opacity:1;fill-rule:evenodd;stroke:#888a85;stroke-width:20;stroke-linecap:butt;stroke-linejoin:round;stroke-miterlimit:4;stroke-dasharray:none;stroke-dashoffset:0;stroke-opacity:1;marker:none;enable-background:accumulate" transform="translate(-73.201 -208.992)"/><path d="M125.156 246.063V553.78h495.406V244.063H125.156v1z" style="color:#000;display:inline;overflow:visible;visibility:visible;opacity:.749104;fill:none;stroke:none;stroke-width:14;marker:none;enable-background:accumulate" transform="translate(-73.201 -208.992)"/><path d="M605.75 241.688c-160.749.983-321.502-.307-482.25.78-.363 104.469-.656 208.94.063 313.407 166.332-.52 332.669.618 499-.656-.76-104.52 1.25-209.055-1.032-313.563-5.26.013-10.52-.03-15.781.031z" style="color:#000;display:inline;overflow:visible;visibility:visible;opacity:.756272;fill:url(#i);fill-opacity:1;fill-rule:evenodd;stroke:none;stroke-width:20;marker:none;enable-background:accumulate" transform="translate(-73.201 -208.992)"/><path d="M131.377 274.637c-1.17 19.566-.165 39.5-.5 59.206v212.4c3.61 4.058 11.66.788 17.02 1.84H612.84c4.414-3.32.857-10.721 2.002-15.65V275.845c-3.61-4.059-11.66-.788-17.02-1.84H132.88l-.91.383z" style="color:#000;display:inline;overflow:visible;visibility:visible;fill:none;stroke:#fff;stroke-width:13.4405;stroke-linecap:butt;stroke-linejoin:round;stroke-miterlimit:4;stroke-dasharray:none;stroke-dashoffset:0;stroke-opacity:1;marker:none;enable-background:accumulate" transform="translate(-73.201 -208.992)"/><path d="M79.701 215.492h583.455v46.312H79.7Z" style="color:#000;display:inline;overflow:visible;visibility:visible;fill:#888a85;fill-opacity:1;fill-rule:evenodd;stroke:#555753;stroke-width:13;stroke-linecap:butt;stroke-linejoin:round;stroke-miterlimit:4;stroke-dasharray:none;stroke-dashoffset:0;stroke-opacity:1;marker:none;enable-background:accumulate" transform="translate(-73.201 -208.992)"/><path d="M89.688 227.5v24.313h563.468V225.5H89.688v1z" style="color:#000;display:inline;overflow:visible;visibility:visible;opacity:.693603;fill:url(#j);fill-opacity:1;fill-rule:evenodd;stroke:#fff;stroke-width:7;stroke-linecap:butt;stroke-linejoin:miter;stroke-miterlimit:4;stroke-dasharray:none;stroke-dashoffset:0;stroke-opacity:1;marker:none;enable-background:accumulate" transform="translate(-73.201 -208.992)"/><path d="m257.589 420.007-170.38-4.667 89.232-145.22Z" style="fill:#3465a4;fill-opacity:1;fill-rule:nonzero;stroke:#204a87;stroke-width:7;stroke-linecap:round;stroke-linejoin:miter;stroke-miterlimit:4;stroke-dasharray:none;stroke-dashoffset:0;stroke-opacity:1" transform="matrix(.78443 -.0196 .0196 .78443 62.758 -108.567)"/><path d="M421.234 350.793h104.045V454.84H421.234Z" style="color:#000;display:inline;overflow:visible;visibility:visible;fill:#edd400;fill-opacity:1;fill-rule:evenodd;stroke:#c4a000;stroke-width:7;stroke-linecap:butt;stroke-linejoin:miter;stroke-miterlimit:4;stroke-dasharray:none;stroke-dashoffset:0;stroke-opacity:1;marker:none;enable-background:accumulate" transform="translate(-73.201 -208.992)"/><path d="M424.784 451.824c0 30.963-25.1 56.063-56.063 56.063s-56.064-25.1-56.064-56.063 25.1-56.064 56.064-56.064c30.963 0 56.063 25.1 56.063 56.064z" style="fill:#c00;fill-rule:evenodd;stroke:#a40000;stroke-width:7;stroke-linecap:butt;stroke-linejoin:miter;stroke-miterlimit:4;stroke-dasharray:none;stroke-opacity:1" transform="translate(-73.201 -208.992)"/></svg>