<svg xmlns="http://www.w3.org/2000/svg" xmlns:xlink="http://www.w3.org/1999/xlink" width="32" height="32"><defs><linearGradient id="g"><stop offset="0" style="stop-color:#64baff;stop-opacity:1"/><stop offset="1" style="stop-color:#3689e6;stop-opacity:1"/></linearGradient><linearGradient id="a"><stop offset="0" style="stop-color:#fff;stop-opacity:1"/><stop offset="0" style="stop-color:#fff;stop-opacity:.23529412"/><stop offset="1" style="stop-color:#fff;stop-opacity:.15686275"/><stop offset="1" style="stop-color:#fff;stop-opacity:.39215687"/></linearGradient><linearGradient id="b"><stop offset="0" style="stop-color:#f4f4f4;stop-opacity:1"/><stop offset="1" style="stop-color:#dbdbdb;stop-opacity:1"/></linearGradient><linearGradient id="c"><stop offset="0" style="stop-color:#000;stop-opacity:1"/><stop offset="1" style="stop-color:#000;stop-opacity:0"/></linearGradient><linearGradient id="d"><stop offset="0" style="stop-color:#000;stop-opacity:0"/><stop offset=".5" style="stop-color:#000;stop-opacity:1"/><stop offset="1" style="stop-color:#000;stop-opacity:0"/></linearGradient><linearGradient xlink:href="#a" id="l" x1="24" x2="24" y1="6.185" y2="41.815" gradientTransform="matrix(.56757 0 0 .72973 2.378 -2.514)" gradientUnits="userSpaceOnUse"/><linearGradient xlink:href="#b" id="k" x1="25.132" x2="25.132" y1=".985" y2="47.013" gradientTransform="matrix(.62857 0 0 .6084 .914 -.535)" gradientUnits="userSpaceOnUse"/><linearGradient xlink:href="#d" id="h" x1="302.857" x2="302.857" y1="366.648" y2="609.505" gradientTransform="matrix(.04577 0 0 .00824 -.542 25.98)" gradientUnits="userSpaceOnUse"/><linearGradient id="e"><stop offset="0" style="stop-color:#000;stop-opacity:.31782946"/><stop offset="1" style="stop-color:#000;stop-opacity:.24031007"/></linearGradient><linearGradient xlink:href="#e" id="m" x1="-51.786" x2="-51.786" y1="50.786" y2="2.906" gradientTransform="matrix(.53064 0 0 .5897 39.27 -1.792)" gradientUnits="userSpaceOnUse"/><linearGradient xlink:href="#f" id="n" x1="21.982" x2="21.982" y1="36.042" y2="6.042" gradientTransform="translate(-2.982 -6.042)" gradientUnits="userSpaceOnUse"/><linearGradient id="f"><stop offset="0" style="stop-color:#aaa;stop-opacity:1"/><stop offset="1" style="stop-color:#c8c8c8;stop-opacity:1"/></linearGradient><linearGradient xlink:href="#g" id="o" x1="8.5" x2="8.5" y1=".5" y2="29.5" gradientUnits="userSpaceOnUse"/><radialGradient xlink:href="#c" id="j" cx="605.714" cy="486.648" r="117.143" fx="605.714" fy="486.648" gradientTransform="matrix(.01566 0 0 .00824 17.61 25.98)" gradientUnits="userSpaceOnUse"/><radialGradient xlink:href="#c" id="i" cx="605.714" cy="486.648" r="117.143" fx="605.714" fy="486.648" gradientTransform="matrix(-.01566 0 0 .00824 14.39 25.98)" gradientUnits="userSpaceOnUse"/></defs><path d="M4.95 29h22.1v2H4.95z" style="opacity:.15;fill:url(#h);fill-opacity:1;fill-rule:nonzero;stroke:none;stroke-width:1;marker:none;visibility:visible;display:inline;overflow:visible"/><path d="M4.95 29v2c-.807.004-1.95-.448-1.95-1s.9-1 1.95-1z" style="opacity:.15;fill:url(#i);fill-opacity:1;fill-rule:nonzero;stroke:none;stroke-width:1;marker:none;visibility:visible;display:inline;overflow:visible"/><path d="M27.05 29v2c.807.004 1.95-.448 1.95-1s-.9-1-1.95-1z" style="opacity:.15;fill:url(#j);fill-opacity:1;fill-rule:nonzero;stroke:none;stroke-width:1;marker:none;visibility:visible;display:inline;overflow:visible"/><path d="m5 1 22 .002V29H5V1z" style="fill:url(#k);fill-opacity:1;stroke:none;display:inline"/><path d="M26.5 28.5h-21v-27h21z" style="fill:none;stroke:url(#l);stroke-width:1;stroke-linecap:round;stroke-linejoin:miter;stroke-miterlimit:4;stroke-opacity:1;stroke-dasharray:none;stroke-dashoffset:0"/><path d="m8.5.5 19 .002V29.5h-19" style="display:inline;fill:none;stroke:url(#m);stroke-width:.9999218;stroke-linecap:butt;stroke-linejoin:round;stroke-miterlimit:4;stroke-dasharray:none;stroke-dashoffset:0;stroke-opacity:1"/><path d="M11 5.505h1.344zm1.688 0h2.187zm2.53 0h1.938zm2.25 0h.845zm1.188 0h1.875zm2.25 0H24Zm-9.906 2h2.656zm3.063 0h1.75zm2.062 0H17Zm1.219 0h1.593zm1.937 0h1.625zm1.938 0h2.593ZM11 9.5h3.281zm3.625 0h4.625zm4.938 0h1.843zM11 11.5h1.594zm1.094 0H18ZM11 14.537h2.094zm2.406 0h5.063zm5.375 0h2.469Zm2.782 0h2.312ZM11 16.5h1.344zm1.688 0h2.156zm2.53 0h1.938zm2.25 0h.845zm1.188 0h1.875zm2.25 0H24ZM11 18.575h3.281zm3.625 0h4.625zm4.938 0h1.843zM11 21.5h2.094zm2.406 0h5.063zm5.375 0h2.469Zm-7.78 2h2.874Zm3.218 0h1.219zm1.531 0h2.781zm3.094 0h4.093zM11 25.5h2.875Zm3.219 0h1.75zm2.062 0h2.75zm3.063 0h2.968z" style="fill:none;stroke:url(#n);stroke-width:1px;stroke-linecap:butt;stroke-linejoin:miter;stroke-opacity:1"/><path d="M8.5 29.5h-4V.5h4" style="color:#000;display:inline;overflow:visible;visibility:visible;fill:url(#o);fill-opacity:1;fill-rule:nonzero;stroke:none;stroke-width:1;stroke-linecap:butt;stroke-linejoin:round;stroke-miterlimit:4;stroke-dasharray:none;stroke-dashoffset:0;stroke-opacity:1;marker:none;enable-background:accumulate"/><path d="M8.5 29.5h-4V.5h4" style="color:#000;display:inline;overflow:visible;visibility:visible;opacity:.5;fill:none;fill-opacity:1;fill-rule:nonzero;stroke:#0d52bf;stroke-width:1;stroke-linecap:butt;stroke-linejoin:round;stroke-miterlimit:4;stroke-dasharray:none;stroke-dashoffset:0;stroke-opacity:1;marker:none;enable-background:accumulate"/><path d="M8.5 28.5h-3v-27h3" style="opacity:.5;fill:none;stroke:url(#l);stroke-width:1;stroke-linecap:butt;stroke-linejoin:miter;stroke-miterlimit:4;stroke-dasharray:none;stroke-dashoffset:0;stroke-opacity:1;font-variant-east_asian:normal;vector-effect:none;fill-opacity:1"/></svg>